# xmcd
#
# Track frame offsets:
#	150
#	16382
#	34712
#	53910
#	66870
#	84952
#	104030
#	122230
#	138432
#	158027
#	180022
#	196822
#	218057
#	235097
#	253110
#	269810
#	289247
#	305265
#	323557
#	336930
#
# Disc length: 4726
#
# Revision: 1
# Processed by: cddbd v1.5.1PL0 Copyright (c) Steve Scherf et al.
# Submitted via: EasyCDDAExtractor 4.5.0.2
# Normalized: r0:TDELIM( - )
#
DISCID=1e127414
DTITLE=The Soul Album II - The Soul Alboum II disk 1
DYEAR=1998
DGENRE=soul
TTITLE0=Eternal Feat - I Wanna be The Only One
TTITLE1=Youssou N'Dour and Neneh Cherry - Seven Seconds
TTITLE2=Tina Turner - I Don't Wanna Lose You
TTITLE3=Dionne Warwick - Walk On By
TTITLE4=Hot Chocolate - It Started With A Kiss
TTITLE5=LightHouse Family - Lifted
TTITLE6=Dennis Edwards Feat - Don't Look Any Further
TTITLE7=Soul II Soul Feat - Keep On Movin
TTITLE8=The Staple Singers - If You're Ready
TTITLE9=Randy Crawford - One Day I'll Fly Away
TTITLE10=Gladys Knight and The Pips - You're The Best Thing That Ever Happened To Me
TTITLE11=R. Kelly - I Believe I Can Fly
TTITLE12=Erykah Badu - On And On
TTITLE13=Mary J.Blige - Everything
TTITLE14=The Jones Girls - Nights Over Egypt
TTITLE15=BlackStreet - Don't Leave Me
TTITLE16=Luther Vandross - So Amazing
TTITLE17=Marvin Gaye - Sexual Healing
TTITLE18=Sky and The Family Stone - Family Affair
TTITLE19=The Isley Brothers - Harvest For The World
EXTD=
EXTT0=
EXTT1=
EXTT2=
EXTT3=
EXTT4=
EXTT5=
EXTT6=
EXTT7=
EXTT8=
EXTT9=
EXTT10=
EXTT11=
EXTT12=
EXTT13=
EXTT14=
EXTT15=
EXTT16=
EXTT17=
EXTT18=
EXTT19=
PLAYORDER=
